<svg xmlns="http://www.w3.org/2000/svg" viewBox="0 0 512 512">
<path d="M0 0 C4.20493401 3.45549003 8.11431734 7.1932717 12 11 C12.77472656 11.73605469 13.54945313 12.47210938 14.34765625 13.23046875 C18.45395998 17.19861647 21.83196985 21.24795478 25 26 C21.95814031 29.26853674 18.72794887 31.61831784 15 34.0625 C-10.18454884 51.05482942 -24.86820569 74.5673873 -31 104 C-36.13111303 132.37403563 -29.72171918 161.95630439 -14.08203125 185.94140625 C-0.18605713 205.520912 17.81534591 218.38202568 39 229 C28.54039595 263.69014409 9.5396637 294.88538562 -13 323 C-13.47002441 323.58716797 -13.94004883 324.17433594 -14.42431641 324.77929688 C-30.61972936 344.84115642 -48.6024216 361.75573606 -75 366 C-92.93832146 367.8629062 -109.93109926 361.3440428 -126.49609375 355.3828125 C-160.66569191 343.11002086 -189.37983058 346.26882439 -222.78442383 358.67089844 C-234.50365886 363.00569416 -245.86213899 366.59113342 -258.5 366.4375 C-259.85436157 366.42505249 -259.85436157 366.42505249 -261.23608398 366.41235352 C-285.69309416 365.79748192 -303.17362828 348.75951364 -319.13867188 332.01806641 C-323.29041264 327.51671684 -327.01333462 322.71440788 -330.65820312 317.79931641 C-332.06992211 315.90623617 -333.50881181 314.03627895 -334.953125 312.16796875 C-379.1183122 254.72482334 -407.14713726 176.57199107 -397.68359375 103.56640625 C-393.31526343 73.24772731 -382.65182759 45.71397515 -363 22 C-362.17886719 20.99582031 -361.35773438 19.99164063 -360.51171875 18.95703125 C-340.648858 -4.09168933 -311.62421818 -18.05686908 -282 -23 C-281.21496094 -23.13277344 -280.42992187 -23.26554687 -279.62109375 -23.40234375 C-277.40833318 -23.70885518 -275.23109545 -23.87959167 -273 -24 C-271.31777344 -24.09667969 -271.31777344 -24.09667969 -269.6015625 -24.1953125 C-247.67584212 -24.85177119 -227.82795456 -17.11278451 -207.37962341 -10.15644836 C-201.25871229 -8.07815346 -195.12807683 -6.05019257 -188.9375 -4.1875 C-188.16736572 -3.9395166 -187.39723145 -3.6915332 -186.60375977 -3.43603516 C-175.12428623 -0.08270996 -164.70155716 -4.08668347 -153.87063599 -7.86181641 C-151.46061428 -8.7012179 -149.04562362 -9.52456177 -146.62866211 -10.34375 C-142.74664249 -11.66074992 -138.86791312 -12.98707015 -134.99041748 -14.31732178 C-90.16532232 -29.69154181 -39.35598623 -30.18242905 0 0 Z " fill="currentColor" transform="translate(436,146)"/>
<path d="M0 0 C4.90103085 23.8925254 -4.6671432 48.97786452 -17 69 C-20.33970275 73.9504991 -24.0868414 78.4962885 -28 83 C-28.721875 83.85980469 -29.44375 84.71960938 -30.1875 85.60546875 C-46.32767168 104.42516112 -68.6387399 117.99828352 -93.25 121.75 C-98.1588569 122.07725713 -103.08435774 122.29372906 -108 122 C-110.77631876 119.22368124 -109.31210786 111.06437865 -109.31469727 107.33764648 C-108.98914379 82.20453252 -97.36027538 58.68500367 -81 40 C-80.38769531 39.24332031 -79.77539062 38.48664062 -79.14453125 37.70703125 C-61.97888173 17.02773065 -27.54722732 -2.38389467 0 0 Z " fill="currentColor" transform="translate(365,0)"/>
</svg>
