
<svg xmlns="http://www.w3.org/2000/svg" viewBox="0 0 30.3164 27.5742">
  <path d="M6.62109 27.5742L23.332 27.5742C26.2148 27.5742 27.7617 26.0742 27.7617 23.2031L27.7617 7.01953L25.6758 7.01953L25.6758 23.2852C25.6758 24.7969 24.832 25.6172 23.3438 25.6172L6.62109 25.6172C5.09766 25.6172 4.27734 24.7969 4.27734 23.2852L4.27734 7.01953L2.20312 7.01953L2.20312 23.2031C2.20312 26.0859 3.75 27.5742 6.62109 27.5742ZM9.92578 14.0156L20.0391 14.0156C20.6484 14.0156 21.0469 13.6055 21.0469 12.9844L21.0469 12.5273C21.0469 11.8945 20.6484 11.5078 20.0391 11.5078L9.92578 11.5078C9.32812 11.5078 8.92969 11.8945 8.92969 12.5273L8.92969 12.9844C8.92969 13.6055 9.32812 14.0156 9.92578 14.0156ZM2.69531 7.96875L27.2695 7.96875C29.0039 7.96875 29.9648 6.86719 29.9648 5.15625L29.9648 2.84766C29.9648 1.125 29.0039 0.0351562 27.2695 0.0351562L2.69531 0.0351562C1.03125 0.0351562 0 1.125 0 2.84766L0 5.15625C0 6.86719 0.960938 7.96875 2.69531 7.96875ZM3.17578 6.01172C2.41406 6.01172 2.07422 5.64844 2.07422 4.875L2.07422 3.11719C2.07422 2.35547 2.41406 1.99219 3.17578 1.99219L26.8008 1.99219C27.5625 1.99219 27.8906 2.35547 27.8906 3.11719L27.8906 4.875C27.8906 5.64844 27.5625 6.01172 26.8008 6.01172Z" fill="currentColor" />
</svg>
