
<svg xmlns="http://www.w3.org/2000/svg" viewBox="0 0 28.4297 22.6992">
  <path d="M16.7344 22.6875C17.0391 22.6875 17.3086 22.5703 17.5664 22.3359L27.6914 12.1875C27.9492 11.9531 28.0781 11.6602 28.0781 11.3438C28.0781 11.0273 27.9492 10.7344 27.6914 10.4883L17.625 0.410156C17.3203 0.105469 17.0391 0 16.7344 0C16.1016 0 15.6094 0.46875 15.6094 1.10156C15.6094 1.40625 15.7148 1.69922 15.9258 1.91016L20.0273 6.07031L25.7461 11.3438L20.0273 16.6172L15.9258 20.7656C15.7266 20.9766 15.6094 21.2812 15.6094 21.5859C15.6094 22.2188 16.1016 22.6875 16.7344 22.6875ZM1.125 12.4805L21.1641 12.4805L25.7578 12.2227C26.2969 12.1875 26.6602 11.8594 26.6602 11.3438C26.6602 10.8164 26.2969 10.4883 25.7695 10.4531L21.1641 10.207L1.125 10.207C0.46875 10.207 0 10.6758 0 11.3438C0 12 0.46875 12.4805 1.125 12.4805Z" fill="black" fill-opacity="0.85"/>
</svg>
