<svg xmlns="http://www.w3.org/2000/svg" viewBox="0 0 21.1172 33.491"><path d="M6.73828 32.6888L20.4023 15.1459C20.6367 14.8529 20.7656 14.5834 20.7656 14.2787C20.7656 13.7982 20.4023 13.4232 19.8516 13.4232L11.25 13.4232L15.8086 1.51696C16.3242 0.145866 14.8945-0.568978 14.0273 0.556022L0.363281 18.099C0.128906 18.392 0 18.6498 0 18.9545C0 19.4466 0.363281 19.8216 0.925781 19.8216L9.51562 19.8216L4.95703 31.7279C4.44141 33.0873 5.87109 33.8021 6.73828 32.6888ZM7.53516 29.1615L12.4805 17.8881L3.23438 17.8881L13.582 4.28258L13.2188 4.08337L8.27344 15.3568L17.5195 15.3568L7.17188 28.9623Z" fill="currentColor"/></svg>
