<svg xmlns="http://www.w3.org/2000/svg" viewBox="0 0 30.375 27.5742"><path d="M4.55859 27.5742L25.4531 27.5742C28.4883 27.5742 30.0234 26.0508 30.0234 23.0625L30.0234 4.54688C30.0234 1.55859 28.4883 0.0351562 25.4531 0.0351562L4.55859 0.0351562C1.53516 0.0351562 0 1.54688 0 4.54688L0 23.0625C0 26.0625 1.53516 27.5742 4.55859 27.5742ZM4.39453 25.5C2.89453 25.5 2.07422 24.7031 2.07422 23.1562L2.07422 9.17578C2.07422 7.61719 2.89453 6.83203 4.39453 6.83203L25.6055 6.83203C27.0938 6.83203 27.9375 7.61719 27.9375 9.17578L27.9375 23.1562C27.9375 24.7031 27.0938 25.5 25.6055 25.5ZM12.0234 12.2227L12.9141 12.2227C13.418 12.2227 13.5586 12.082 13.5586 11.5898L13.5586 10.7109C13.5586 10.2188 13.418 10.0898 12.9141 10.0898L12.0234 10.0898C11.5312 10.0898 11.3906 10.2188 11.3906 10.7109L11.3906 11.5898C11.3906 12.082 11.5312 12.2227 12.0234 12.2227ZM17.1211 12.2227L18.0117 12.2227C18.5039 12.2227 18.6445 12.082 18.6445 11.5898L18.6445 10.7109C18.6445 10.2188 18.5039 10.0898 18.0117 10.0898L17.1211 10.0898C16.6172 10.0898 16.4766 10.2188 16.4766 10.7109L16.4766 11.5898C16.4766 12.082 16.6172 12.2227 17.1211 12.2227ZM22.207 12.2227L23.0977 12.2227C23.5898 12.2227 23.7422 12.082 23.7422 11.5898L23.7422 10.7109C23.7422 10.2188 23.5898 10.0898 23.0977 10.0898L22.207 10.0898C21.7148 10.0898 21.5625 10.2188 21.5625 10.7109L21.5625 11.5898C21.5625 12.082 21.7148 12.2227 22.207 12.2227ZM6.9375 17.2266L7.82812 17.2266C8.32031 17.2266 8.47266 17.0977 8.47266 16.6055L8.47266 15.7148C8.47266 15.2344 8.32031 15.0938 7.82812 15.0938L6.9375 15.0938C6.44531 15.0938 6.29297 15.2344 6.29297 15.7148L6.29297 16.6055C6.29297 17.0977 6.44531 17.2266 6.9375 17.2266ZM12.0234 17.2266L12.9141 17.2266C13.418 17.2266 13.5586 17.0977 13.5586 16.6055L13.5586 15.7148C13.5586 15.2344 13.418 15.0938 12.9141 15.0938L12.0234 15.0938C11.5312 15.0938 11.3906 15.2344 11.3906 15.7148L11.3906 16.6055C11.3906 17.0977 11.5312 17.2266 12.0234 17.2266ZM17.1211 17.2266L18.0117 17.2266C18.5039 17.2266 18.6445 17.0977 18.6445 16.6055L18.6445 15.7148C18.6445 15.2344 18.5039 15.0938 18.0117 15.0938L17.1211 15.0938C16.6172 15.0938 16.4766 15.2344 16.4766 15.7148L16.4766 16.6055C16.4766 17.0977 16.6172 17.2266 17.1211 17.2266ZM22.207 17.2266L23.0977 17.2266C23.5898 17.2266 23.7422 17.0977 23.7422 16.6055L23.7422 15.7148C23.7422 15.2344 23.5898 15.0938 23.0977 15.0938L22.207 15.0938C21.7148 15.0938 21.5625 15.2344 21.5625 15.7148L21.5625 16.6055C21.5625 17.0977 21.7148 17.2266 22.207 17.2266ZM6.9375 22.2422L7.82812 22.2422C8.32031 22.2422 8.47266 22.1133 8.47266 21.6211L8.47266 20.7305C8.47266 20.2383 8.32031 20.1094 7.82812 20.1094L6.9375 20.1094C6.44531 20.1094 6.29297 20.2383 6.29297 20.7305L6.29297 21.6211C6.29297 22.1133 6.44531 22.2422 6.9375 22.2422ZM12.0234 22.2422L12.9141 22.2422C13.418 22.2422 13.5586 22.1133 13.5586 21.6211L13.5586 20.7305C13.5586 20.2383 13.418 20.1094 12.9141 20.1094L12.0234 20.1094C11.5312 20.1094 11.3906 20.2383 11.3906 20.7305L11.3906 21.6211C11.3906 22.1133 11.5312 22.2422 12.0234 22.2422ZM17.1211 22.2422L18.0117 22.2422C18.5039 22.2422 18.6445 22.1133 18.6445 21.6211L18.6445 20.7305C18.6445 20.2383 18.5039 20.1094 18.0117 20.1094L17.1211 20.1094C16.6172 20.1094 16.4766 20.2383 16.4766 20.7305L16.4766 21.6211C16.4766 22.1133 16.6172 22.2422 17.1211 22.2422Z" fill="currentColor"/></svg>