<svg version="1.1" xmlns="http://www.w3.org/2000/svg" xmlns:xlink="http://www.w3.org/1999/xlink" viewBox="0 0 37.8867 28.3945">
  <path d="M30 28.207L34.5352 28.207C36.5156 28.207 37.5352 27.2461 37.5352 25.3242L37.5352 2.88281C37.5352 0.960938 36.5156 0 34.5352 0L30 0C28.0312 0 27.0117 0.960938 27.0117 2.88281L27.0117 25.3242C27.0117 27.2461 28.0312 28.207 30 28.207Z" fill="currentColor"/>
  <path d="M16.4883 28.207L21.0234 28.207C23.0156 28.207 24.0234 27.2461 24.0234 25.3242L24.0234 7.27734C24.0234 5.36719 23.0156 4.39453 21.0234 4.39453L16.4883 4.39453C14.5195 4.39453 13.5117 5.36719 13.5117 7.27734L13.5117 25.3242C13.5117 27.2461 14.5195 28.207 16.4883 28.207Z" fill="currentColor"/>
  <path d="M2.97656 28.207L7.52344 28.207C9.50391 28.207 10.5117 27.2461 10.5117 25.3242L10.5117 11.6484C10.5117 9.72656 9.50391 8.76562 7.52344 8.76562L2.97656 8.76562C1.00781 8.76562 0 9.72656 0 11.6484L0 25.3242C0 27.2461 1.00781 28.207 2.97656 28.207Z" fill="currentColor"/>
</svg>
