<svg xmlns="http://www.w3.org/2000/svg" viewBox="0 0 38.2148 28.3945"><path d="M30.3281 28.3594L34.5352 28.3594C36.7266 28.3594 37.8633 27.293 37.8633 25.1719L37.8633 3.1875C37.8633 1.06641 36.7266 0 34.5352 0L30.3281 0C28.1367 0 27.0117 1.06641 27.0117 3.1875L27.0117 25.1719C27.0117 27.293 28.1367 28.3594 30.3281 28.3594ZM30.6445 26.4023C29.4961 26.4023 29.0625 25.9688 29.0625 24.832L29.0625 3.52734C29.0625 2.39062 29.4961 1.95703 30.6445 1.95703L34.2305 1.95703C35.3789 1.95703 35.8125 2.39062 35.8125 3.52734L35.8125 24.832C35.8125 25.9688 35.3789 26.4023 34.2305 26.4023Z" fill="currentColor"/><path d="M16.8164 28.3594L21.0234 28.3594C23.2266 28.3594 24.3516 27.293 24.3516 25.1719L24.3516 7.59375C24.3516 5.47266 23.2266 4.39453 21.0234 4.39453L16.8164 4.39453C14.625 4.39453 13.5117 5.47266 13.5117 7.59375L13.5117 25.1719C13.5117 27.293 14.625 28.3594 16.8164 28.3594ZM17.1445 26.4023C15.9961 26.4023 15.5625 25.9688 15.5625 24.832L15.5625 7.93359C15.5625 6.79688 15.9961 6.35156 17.1445 6.35156L20.7188 6.35156C21.8672 6.35156 22.3008 6.79688 22.3008 7.93359L22.3008 24.832C22.3008 25.9688 21.8672 26.4023 20.7188 26.4023Z" fill="currentColor"/><path d="M3.31641 28.3594L7.52344 28.3594C9.71484 28.3594 10.8516 27.293 10.8516 25.1719L10.8516 11.9531C10.8516 9.83203 9.71484 8.76562 7.52344 8.76562L3.31641 8.76562C1.11328 8.76562 0 9.83203 0 11.9531L0 25.1719C0 27.293 1.11328 28.3594 3.31641 28.3594ZM3.63281 26.4023C2.48438 26.4023 2.05078 25.9688 2.05078 24.832L2.05078 12.293C2.05078 11.1562 2.48438 10.7227 3.63281 10.7227L7.21875 10.7227C8.36719 10.7227 8.80078 11.1562 8.80078 12.293L8.80078 24.832C8.80078 25.9688 8.36719 26.4023 7.21875 26.4023Z" fill="currentColor"/></svg>