<svg xmlns="http://www.w3.org/2000/svg" viewBox="0 0 37.0547 37.9102"><path d="M27.9064 4.17188L8.80833 4.17188C8.88344 3.11012 9.57278 2.49609 10.6992 2.49609L26.0039 2.49609C27.1303 2.49609 27.8301 3.11012 27.9064 4.17188Z" fill="currentColor"/><path d="M30.9308 8.27324C30.5107 8.20905 30.0657 8.17969 29.6016 8.17969L7.10156 8.17969C6.63727 8.17969 6.19228 8.20878 5.7724 8.27251C5.93177 7.02646 6.79036 6.32812 8.16797 6.32812L28.5352 6.32812C29.913 6.32812 30.7717 7.02673 30.9308 8.27324Z" fill="currentColor"/><path d="M7.10156 35.3789L29.6016 35.3789C32.625 35.3789 34.1602 33.8438 34.1602 30.8555L34.1602 15.2344C34.1602 12.2461 32.625 10.7227 29.6016 10.7227L7.10156 10.7227C4.06641 10.7227 2.54297 12.2344 2.54297 15.2344L2.54297 30.8555C2.54297 33.8555 4.06641 35.3789 7.10156 35.3789ZM7.13672 33.3047C5.50781 33.3047 4.61719 32.4375 4.61719 30.75L4.61719 15.3398C4.61719 13.6641 5.50781 12.7969 7.13672 12.7969L29.5664 12.7969C31.1719 12.7969 32.0859 13.6641 32.0859 15.3398L32.0859 30.75C32.0859 32.4375 31.1719 33.3047 29.5664 33.3047Z" fill="currentColor"/><path d="M16.7109 30.2227C17.1445 30.2227 17.4961 30.0234 17.7539 29.6367L24.9375 18.375C25.0898 18.1289 25.2422 17.8359 25.2422 17.5547C25.2422 16.9805 24.7266 16.5938 24.1875 16.5938C23.8594 16.5938 23.5312 16.8047 23.2969 17.1797L16.6641 27.7148L13.3594 23.5781C13.0547 23.1797 12.7617 23.0625 12.4102 23.0625C11.8477 23.0625 11.4023 23.5195 11.4023 24.0938C11.4023 24.375 11.5195 24.6562 11.707 24.9023L15.6211 29.6367C15.9492 30.0469 16.2773 30.2227 16.7109 30.2227Z" fill="currentColor"/></svg>