<svg version="1.1" xmlns="http://www.w3.org/2000/svg" xmlns:xlink="http://www.w3.org/1999/xlink" viewBox="0 0 37.0547 37.9102">
  <path d="M27.9064 4.17188L8.80833 4.17188C8.88344 3.11012 9.57278 2.49609 10.6992 2.49609L26.0039 2.49609C27.1303 2.49609 27.8301 3.11012 27.9064 4.17188Z" fill="currentColor"/>
  <path d="M30.9308 8.27324C30.5107 8.20905 30.0657 8.17969 29.6016 8.17969L7.10156 8.17969C6.63727 8.17969 6.19228 8.20878 5.7724 8.27251C5.93177 7.02646 6.79036 6.32812 8.16797 6.32812L28.5352 6.32812C29.913 6.32812 30.7717 7.02673 30.9308 8.27324Z" fill="currentColor"/>
  <path d="M34.1602 15.2344L34.1602 30.8555C34.1602 33.8438 32.625 35.3789 29.6016 35.3789L7.10156 35.3789C4.06641 35.3789 2.54297 33.8555 2.54297 30.8555L2.54297 15.2344C2.54297 12.2344 4.06641 10.7227 7.10156 10.7227L29.6016 10.7227C32.625 10.7227 34.1602 12.2461 34.1602 15.2344ZM23.4023 17.0273L16.6289 27.7969L13.2539 23.5781C12.9375 23.168 12.6445 23.0391 12.2812 23.0391C11.6953 23.0391 11.2383 23.5195 11.2383 24.1055C11.2383 24.3984 11.3555 24.6914 11.5547 24.9492L15.5508 29.7773C15.8906 30.2227 16.2305 30.3984 16.6758 30.3984C17.1211 30.3984 17.4844 30.1875 17.7539 29.7773L25.0898 18.2578C25.2539 18.0117 25.4062 17.707 25.4062 17.4258C25.4062 16.8281 24.8789 16.4297 24.3281 16.4297C23.9766 16.4297 23.6367 16.6406 23.4023 17.0273Z" fill="currentColor" />
</svg>
