<svg xmlns="http://www.w3.org/2000/svg" viewBox="0 0 24.0616 23.7334"><path d="M21.7515 0.364761L0.329604 21.7866C-0.103989 22.2202-0.115708 22.9585 0.329604 23.4038C0.786636 23.8374 1.5132 23.8374 1.95851 23.4038L23.3687 1.98195C23.814 1.54835 23.8257 0.810073 23.3687 0.364761C22.9234-0.068833 22.1968-0.0805518 21.7515 0.364761ZM23.3687 21.7866L1.95851 0.364761C1.5132-0.068833 0.774917-0.0805518 0.329604 0.364761C-0.103989 0.821792-0.103989 1.54835 0.329604 1.98195L21.7515 23.4038C22.1851 23.8374 22.9351 23.8491 23.3687 23.4038C23.814 22.9468 23.814 22.2202 23.3687 21.7866Z" fill="currentColor"/></svg>
