<svg xmlns="http://www.w3.org/2000/svg" viewBox="0 0 46.3594 42.3867">
  <path d="M27.2461 37.1133C27.6445 37.3477 27.7734 37.8047 27.5273 38.2148L25.4531 41.8125C25.2188 42.2109 24.75 42.3516 24.3516 42.1289C23.9414 41.8945 23.8359 41.4258 24.0703 41.0391L26.1445 37.4297C26.4023 37.0078 26.8477 36.8789 27.2461 37.1133Z" fill="currentColor"/>
  <path d="M22.5 32.8594C22.8984 33.0938 23.0273 33.5508 22.7695 33.9727L20.707 37.5586C20.4727 37.957 20.0039 38.0977 19.6055 37.875C19.1953 37.6406 19.0898 37.1836 19.3242 36.7852L21.3984 33.1758C21.6562 32.7539 22.1016 32.625 22.5 32.8594Z" fill="currentColor"/>
  <path d="M15.2109 37.125C15.6094 37.3594 15.7383 37.8164 15.4922 38.2266L13.418 41.8242C13.1836 42.2227 12.7148 42.3633 12.3164 42.1406C11.918 41.9062 11.8008 41.4375 12.0352 41.0508L14.1211 37.4414C14.3672 37.0195 14.8125 36.8906 15.2109 37.125Z" fill="currentColor"/>
  <path d="M10.4648 32.8711C10.8633 33.1055 10.9922 33.5625 10.7461 33.9844L8.67188 37.5703C8.4375 37.9688 7.96875 38.1094 7.57031 37.8867C7.17188 37.6523 7.05469 37.1953 7.28906 36.7969L9.375 33.1875C9.62109 32.7656 10.0664 32.6367 10.4648 32.8711Z" fill="currentColor"/>
  <path d="M39.3281 22.5352L41.8359 25.0547C42.2578 25.4648 42.2461 26.1445 41.8359 26.543C41.4258 26.9414 40.7578 26.9648 40.3477 26.5547L37.8281 24.0352C37.418 23.625 37.418 22.9453 37.8281 22.5352C38.2383 22.1484 38.918 22.1484 39.3281 22.5352ZM38.2148 15.5508C38.2148 18.2797 36.702 20.6848 34.4769 21.9607C34.0142 17.7119 30.5471 14.5341 26.0273 14.1094C25.547 13.3316 24.9949 12.6211 24.3758 11.9922C25.6395 9.71287 28.0719 8.15625 30.832 8.15625C34.875 8.15625 38.2148 11.4961 38.2148 15.5508ZM46.3594 15.5508C46.3594 16.1367 45.8906 16.6172 45.3047 16.6172L41.7773 16.6172C41.2031 16.6172 40.7109 16.1367 40.7109 15.5508C40.7109 14.9883 41.2031 14.4961 41.7773 14.4961L45.3047 14.4961C45.8906 14.4961 46.3594 14.9883 46.3594 15.5508ZM41.8359 4.55859C42.2461 4.96875 42.2578 5.64844 41.8359 6.07031L39.3398 8.56641C38.918 8.98828 38.2383 8.97656 37.8281 8.56641C37.418 8.15625 37.418 7.47656 37.8281 7.07812L40.3477 4.55859C40.7578 4.13672 41.4258 4.14844 41.8359 4.55859ZM21.3398 4.55859L23.8477 7.07812C24.2461 7.46484 24.2461 8.16797 23.8359 8.56641C23.4375 8.97656 22.7461 8.97656 22.3477 8.56641L19.8398 6.05859C19.4414 5.64844 19.4414 4.96875 19.8516 4.55859C20.2617 4.14844 20.9414 4.14844 21.3398 4.55859ZM31.9102 1.05469L31.9102 4.59375C31.9102 5.15625 31.418 5.63672 30.8438 5.63672C30.2695 5.63672 29.7773 5.15625 29.7773 4.59375L29.7773 1.05469C29.7773 0.480469 30.2695 0 30.8438 0C31.418 0 31.9102 0.480469 31.9102 1.05469Z" fill="currentColor"/>
  <path d="M8.92969 30.293L25.3477 30.293C29.6016 30.293 32.9062 27.0703 32.9062 22.9453C32.9062 18.832 29.543 15.7383 25.0664 15.7031C23.332 12.375 20.2617 10.3008 16.4766 10.3008C11.5898 10.3008 7.48828 14.1445 7.03125 19.1016C4.51172 19.8281 2.74219 21.9375 2.74219 24.668C2.74219 27.9141 5.17969 30.293 8.92969 30.293Z" fill="currentColor"/>
</svg>
