<svg xmlns="http://www.w3.org/2000/svg" viewBox="0 0 35.5547 38.2627"><path d="M28.9688 36.4107C29.3672 36.6333 29.8359 36.5044 30.0703 36.0942L32.1445 32.5083C32.3906 32.0982 32.2617 31.6294 31.8633 31.395C31.4648 31.1724 31.0195 31.3013 30.7734 31.7114L28.6875 35.3208C28.4531 35.7192 28.5586 36.1763 28.9688 36.4107Z" fill="currentColor"/><path d="M26.0039 32.1919C26.4023 32.4146 26.8711 32.2739 27.1055 31.8638L29.1797 28.2778C29.4258 27.8677 29.2969 27.3989 28.8984 27.1646C28.5 26.9419 28.0547 27.0708 27.8086 27.4927L25.7227 31.1021C25.4883 31.4888 25.6055 31.9575 26.0039 32.1919Z" fill="currentColor"/><path d="M21.5391 30.6099L18.2578 30.6099L18.2695 31.2192L20.2031 27.5278C20.3672 27.1997 20.2383 26.9419 19.8984 26.9419L17.1094 26.9419C16.6875 26.9419 16.5234 27.0942 16.3945 27.4107L14.3203 32.145C14.1562 32.52 14.332 32.7427 14.7305 32.7427L17.3789 32.7427L17.5664 31.8403L15.1172 37.7935C15.0352 38.0044 15.082 38.1802 15.2227 38.2388C15.3633 38.2974 15.5391 38.2505 15.6914 38.0747L21.7969 31.3482C22.1016 31.02 21.9727 30.6099 21.5391 30.6099Z" fill="currentColor"/><path d="M8.10938 36.4107C8.50781 36.6333 8.97656 36.5044 9.21094 36.0942L11.2852 32.5083C11.5312 32.0982 11.4023 31.6294 11.0039 31.395C10.6055 31.1724 10.1602 31.3013 9.91406 31.7114L7.82812 35.3208C7.59375 35.7192 7.71094 36.1763 8.10938 36.4107Z" fill="currentColor"/><path d="M5.14453 32.1919C5.54297 32.4146 6.02344 32.2739 6.24609 31.8638L8.32031 28.2778C8.56641 27.8677 8.4375 27.3989 8.05078 27.1646C7.64062 26.9419 7.19531 27.0708 6.94922 27.4927L4.86328 31.1021C4.62891 31.4888 4.74609 31.9575 5.14453 32.1919Z" fill="currentColor"/><path d="M8.16797 24.7505L27 24.7505C31.8867 24.7505 35.5547 21.0474 35.5547 16.4536C35.5547 11.7075 31.6641 8.23878 26.6016 8.23878C24.7031 4.46534 21.2578 2.02784 16.8281 2.02784C11.2031 2.02784 6.57422 6.49268 6.08203 12.106C3.31641 12.8911 1.19531 15.2232 1.19531 18.4107C1.19531 21.9028 3.75 24.7505 8.16797 24.7505Z" fill="currentColor"/></svg>