<svg xmlns="http://www.w3.org/2000/svg" viewBox="0 0 25.2539 35.1914">
  <path d="M11.7656 32.4258C19.6406 32.4258 24.9023 27.0938 24.9023 19.0312C24.9023 5.63672 13.5 0 5.4375 0C4.13672 0 3.33984 0.457031 3.33984 1.33594C3.33984 1.67578 3.49219 2.02734 3.79688 2.37891C5.60156 4.54688 7.41797 7.14844 7.44141 10.0547C7.44141 10.8047 7.32422 11.4844 6.79688 12.3047L7.5 12.1641C6.79688 9.98438 4.89844 8.47266 3.39844 8.47266C2.84766 8.47266 2.48438 8.87109 2.48438 9.45703C2.48438 9.85547 2.60156 10.7812 2.60156 11.4492C2.60156 15.0117 0 16.8867 0 22.2773C0 28.3828 4.66406 32.4258 11.7656 32.4258ZM11.8945 30.5977C5.88281 30.5977 1.85156 27.2461 1.85156 22.2773C1.85156 17.2617 4.48828 15.7734 4.48828 11.6484C4.48828 11.0625 4.37109 10.5 4.25391 9.98438L3.9375 10.5234C5.12109 11.1328 6.16406 12.4453 6.67969 14.4375C6.75 14.7305 6.89062 14.8594 7.11328 14.8594C8.17969 14.8594 9.08203 12.1758 9.08203 10.2422C9.08203 6.92578 7.62891 3.86719 5.13281 1.34766L4.78125 1.76953C15.5273 1.88672 22.9688 9.09375 22.9688 18.9727C22.9688 25.9102 18.5156 30.5977 11.8945 30.5977ZM12.0703 28.1719C15.5859 28.1719 17.2969 25.6055 17.2969 22.6758C17.2969 19.793 15.6094 16.6055 12.3867 15.0703C12.2578 15.0117 12.1641 15.0938 12.1875 15.2227C12.4688 17.6719 12.0938 19.8984 11.3086 20.9531C10.9336 20.0977 10.4766 19.3477 9.79688 18.75C9.67969 18.668 9.59766 18.7031 9.57422 18.8438C9.32812 20.5078 7.5 21.4453 7.5 24.0352C7.5 26.5195 9.31641 28.1719 12.0703 28.1719Z" fill="currentColor" />
</svg>
