<svg version="1.1" xmlns="http://www.w3.org/2000/svg" xmlns:xlink="http://www.w3.org/1999/xlink" viewBox="0 0 32.3789 32.0039">
  <path d="M14.4844 32.0039L17.543 32.0039C18.6445 32.0039 19.4766 31.3477 19.7227 30.2695L20.3906 27.3867L21.0234 27.1641L23.5312 28.7109C24.4688 29.2969 25.5234 29.1797 26.3086 28.3945L28.418 26.2734C29.2148 25.4766 29.3438 24.4336 28.7578 23.5078L27.1875 21L27.4102 20.3906L30.293 19.7227C31.3594 19.4766 32.0273 18.6328 32.0273 17.5312L32.0273 14.5312C32.0273 13.4414 31.3711 12.6094 30.293 12.3516L27.4336 11.6602L27.1992 11.0273L28.7695 8.53125C29.3555 7.59375 29.2383 6.55078 28.4297 5.75391L26.3203 3.63281C25.5469 2.85938 24.4922 2.71875 23.5547 3.30469L21.0469 4.85156L20.3906 4.60547L19.7227 1.73438C19.4766 0.644531 18.6445 0 17.543 0L14.4844 0C13.3828 0 12.5508 0.644531 12.3047 1.73438L11.6367 4.60547L10.9688 4.85156L8.47266 3.30469C7.53516 2.71875 6.48047 2.85938 5.70703 3.63281L3.58594 5.75391C2.78906 6.55078 2.67188 7.59375 3.25781 8.53125L4.82812 11.0273L4.58203 11.6602L1.73438 12.3516C0.65625 12.6094 0 13.4414 0 14.5312L0 17.5312C0 18.6328 0.667969 19.4766 1.73438 19.7227L4.60547 20.3906L4.83984 21L3.26953 23.5078C2.68359 24.4336 2.8125 25.4766 3.59766 26.2734L5.71875 28.3945C6.50391 29.1797 7.55859 29.2969 8.49609 28.7109L10.9922 27.1641L11.6367 27.3867L12.3047 30.2695C12.5508 31.3477 13.3828 32.0039 14.4844 32.0039ZM14.6953 29.9883C14.3789 29.9883 14.2031 29.8359 14.1445 29.543L13.2656 25.8398C12.3984 25.6055 11.5781 25.2773 10.9453 24.9023L7.71094 26.918C7.46484 27.0703 7.20703 27.0586 6.98438 26.8125L5.16797 24.9961C4.93359 24.7734 4.92188 24.5508 5.08594 24.2812L7.08984 21.0469C6.77344 20.4375 6.41016 19.6172 6.17578 18.75L2.46094 17.8828C2.16797 17.8242 2.01562 17.6484 2.01562 17.3203L2.01562 14.7305C2.01562 14.4023 2.15625 14.2383 2.46094 14.168L6.16406 13.2891C6.39844 12.3867 6.80859 11.543 7.06641 10.9805L5.07422 7.75781C4.89844 7.47656 4.91016 7.24219 5.14453 7.01953L6.97266 5.21484C7.20703 4.99219 7.42969 4.95703 7.71094 5.12109L10.9219 7.10156C11.5547 6.76172 12.4219 6.39844 13.2773 6.16406L14.1445 2.46094C14.2031 2.15625 14.3789 2.01562 14.6953 2.01562L17.332 2.01562C17.6602 2.01562 17.8242 2.14453 17.8828 2.46094L18.7617 6.1875C19.6523 6.41016 20.4375 6.77344 21.082 7.11328L24.3047 5.12109C24.5977 4.95703 24.8086 4.99219 25.0547 5.21484L26.8828 7.01953C27.1055 7.24219 27.1172 7.47656 26.9414 7.75781L24.9492 10.9805C25.2305 11.543 25.6289 12.375 25.8633 13.2891L29.5664 14.168C29.8711 14.2383 30.0117 14.4023 30.0117 14.7305L30.0117 17.3203C30.0117 17.6484 29.8594 17.8242 29.5664 17.8828L25.8516 18.75C25.6172 19.6172 25.2656 20.4375 24.9258 21.0469L26.9297 24.2812C27.0938 24.5508 27.082 24.7734 26.8594 24.9961L25.043 26.8125C24.8086 27.0586 24.5625 27.0703 24.3047 26.918L21.0703 24.9023C20.4492 25.2773 19.6406 25.6055 18.7617 25.8398L17.8828 29.543C17.8242 29.8477 17.6602 29.9883 17.332 29.9883ZM16.0195 21.7617C19.207 21.7617 21.7852 19.1836 21.7852 15.9961C21.7852 12.7969 19.207 10.2305 16.0195 10.2305C12.8203 10.2305 10.2422 12.7969 10.2422 15.9961C10.2422 19.1836 12.8203 21.7617 16.0195 21.7617ZM16.0195 19.7578C13.9336 19.7578 12.2578 18.0703 12.2578 15.9961C12.2578 13.9102 13.9336 12.2344 16.0195 12.2344C18.0938 12.2344 19.7812 13.9102 19.7812 15.9961C19.7812 18.0703 18.0938 19.7578 16.0195 19.7578Z" fill="currentColor"/>
</svg>
