<svg version="1.1" xmlns="http://www.w3.org/2000/svg" xmlns:xlink="http://www.w3.org/1999/xlink" viewBox="0 0 31.7812 31.4414">
  <path d="M14.2969 31.4414L17.1328 31.4414C17.9414 31.4414 18.5039 30.9727 18.6914 30.1641L19.4648 26.8945C20.0039 26.707 20.543 26.4961 21.0234 26.2734L23.8828 28.043C24.5625 28.4766 25.3125 28.4062 25.8633 27.8438L27.8555 25.8633C28.418 25.3008 28.5 24.5391 28.043 23.8477L26.2852 21.0117C26.5078 20.5078 26.7188 19.9922 26.8828 19.4766L30.1758 18.7031C30.9844 18.5156 31.4297 17.9531 31.4297 17.1445L31.4297 14.3438C31.4297 13.5469 30.9844 12.9961 30.1758 12.7969L26.9062 12.0117C26.7188 11.4492 26.4961 10.9336 26.3086 10.4766L28.0664 7.59375C28.5 6.90234 28.4531 6.1875 27.8789 5.61328L25.8633 3.62109C25.2891 3.09375 24.5977 2.97656 23.918 3.41016L21.0234 5.20312C20.5547 4.96875 20.0273 4.76953 19.4648 4.58203L18.6914 1.27734C18.5039 0.46875 17.9414 0 17.1328 0L14.2969 0C13.4883 0 12.9258 0.46875 12.7383 1.27734L11.9648 4.55859C11.4258 4.74609 10.8867 4.94531 10.3945 5.19141L7.51172 3.41016C6.83203 2.97656 6.11719 3.07031 5.56641 3.62109L3.55078 5.61328C2.97656 6.1875 2.92969 6.90234 3.36328 7.59375L5.12109 10.4766C4.93359 10.9336 4.71094 11.4492 4.52344 12.0117L1.25391 12.7969C0.457031 12.9961 0 13.5469 0 14.3438L0 17.1445C0 17.9531 0.457031 18.5156 1.25391 18.7031L4.54688 19.4766C4.71094 19.9922 4.92188 20.5078 5.14453 21.0117L3.38672 23.8477C2.92969 24.5391 3.01172 25.3008 3.57422 25.8633L5.56641 27.8438C6.11719 28.4062 6.86719 28.4766 7.54688 28.043L10.4062 26.2734C10.8984 26.4961 11.4258 26.707 11.9648 26.8945L12.7383 30.1641C12.9258 30.9727 13.4883 31.4414 14.2969 31.4414ZM15.7148 21.0938C12.75 21.0938 10.3359 18.6797 10.3359 15.7148C10.3359 12.75 12.75 10.3359 15.7148 10.3359C18.6797 10.3359 21.0938 12.75 21.0938 15.7148C21.0938 18.6797 18.6797 21.0938 15.7148 21.0938Z" fill="currentColor"/>
</svg>
