<svg xmlns="http://www.w3.org/2000/svg" viewBox="0 0 57.9609 31.4648">
  <path d="M57.6094 27.1992C57.6094 28.8047 56.6602 29.6016 54.7383 29.6016L43.1113 29.6016C43.4937 29.0503 43.7026 28.3981 43.7534 27.6797L55.0312 27.6797C55.4883 27.6797 55.6758 27.5156 55.6758 27.0938C55.6758 23.1562 51.3164 19.5703 46.2305 19.5703C44.3099 19.5703 42.4912 20.0817 40.9724 20.9313C40.5558 20.4467 40.0791 19.9847 39.5514 19.552C41.4036 18.3782 43.7016 17.6602 46.2305 17.6602C52.6641 17.6602 57.6094 22.3242 57.6094 27.1992ZM51.8203 9.71484C51.8203 13.1367 49.3359 15.8672 46.2422 15.8672C43.1602 15.8672 40.6641 13.1484 40.6641 9.73828C40.6641 6.45703 43.1836 3.72656 46.2422 3.72656C49.3359 3.72656 51.8203 6.41016 51.8203 9.71484ZM42.5977 9.73828C42.5977 12.082 44.25 13.9336 46.2422 13.9336C48.2461 13.9336 49.8984 12.082 49.8984 9.71484C49.8984 7.46484 48.2695 5.66016 46.2422 5.66016C44.25 5.66016 42.5977 7.5 42.5977 9.73828Z" fill="currentColor"/>
  <path d="M18.0579 19.552C17.531 19.9841 17.0549 20.4454 16.6387 20.9293C15.1209 20.0809 13.3025 19.5703 11.3789 19.5703C6.29297 19.5703 1.93359 23.1562 1.93359 27.0938C1.93359 27.5156 2.12109 27.6797 2.57812 27.6797L13.856 27.6797C13.9067 28.3981 14.1157 29.0503 14.498 29.6016L2.87109 29.6016C0.960938 29.6016 0 28.8047 0 27.1992C0 22.3242 4.94531 17.6602 11.3789 17.6602C13.9078 17.6602 16.2058 18.3782 18.0579 19.552ZM16.9805 9.71484C16.9805 13.1367 14.4844 15.8672 11.4023 15.8672C8.32031 15.8672 5.82422 13.1484 5.82422 9.73828C5.82422 6.45703 8.33203 3.72656 11.4023 3.72656C14.4844 3.72656 16.9805 6.41016 16.9805 9.71484ZM7.75781 9.73828C7.75781 12.082 9.39844 13.9336 11.4023 13.9336C13.4062 13.9336 15.0586 12.082 15.0586 9.71484C15.0586 7.46484 13.418 5.66016 11.4023 5.66016C9.39844 5.66016 7.75781 7.5 7.75781 9.73828Z" fill="currentColor"/>
  <path d="M28.8164 15.6914C32.3672 15.6914 35.2383 12.5625 35.2383 8.68359C35.2383 4.875 32.3672 1.85156 28.8164 1.85156C25.2891 1.85156 22.4062 4.92188 22.4062 8.70703C22.4062 12.5742 25.2656 15.6914 28.8164 15.6914ZM28.8164 13.7344C26.4492 13.7344 24.4805 11.5312 24.4805 8.70703C24.4805 5.96484 26.4375 3.80859 28.8164 3.80859C31.207 3.80859 33.1641 5.92969 33.1641 8.68359C33.1641 11.5078 31.207 13.7344 28.8164 13.7344ZM19.1367 29.6016L38.4727 29.6016C40.793 29.6016 41.9062 28.875 41.9062 27.3047C41.9062 23.3555 36.9258 17.6836 28.8047 17.6836C20.6836 17.6836 15.7148 23.3555 15.7148 27.3047C15.7148 28.875 16.8164 29.6016 19.1367 29.6016ZM18.5742 27.6445C17.9883 27.6445 17.7891 27.4922 17.7891 27.0703C17.7891 24.3398 21.7617 19.6523 28.8047 19.6523C35.8477 19.6523 39.8203 24.3398 39.8203 27.0703C39.8203 27.4922 39.6211 27.6445 39.0352 27.6445Z" fill="currentColor"/>
</svg>
