<svg xmlns="http://www.w3.org/2000/svg" viewBox="5.65 0.65 39.68 36.76"><path d="M31.6117 8.50119L30.2012 10.2702C29.7988 10.191 29.3788 10.1514 28.9453 10.1514C26.1328 10.1514 24.4688 11.9327 23.4023 13.5616C23.0273 14.0889 22.8164 14.2647 22.5 14.2647C22.1719 14.2647 21.9375 14.1007 21.5859 13.5616C20.5664 11.9093 18.8789 10.1514 16.0547 10.1514C12.4219 10.1514 9.73828 12.9288 9.73828 17.0304C9.73828 22.6905 15.6562 28.7139 22.2188 33.0733C22.3477 33.1554 22.4414 33.2257 22.5 33.2257C22.5586 33.2257 22.6523 33.1554 22.7812 33.0733C26.5763 30.5478 30.1628 27.4639 32.5002 24.2145C33.1701 24.6717 34.0441 24.8308 34.8701 24.5492C32.5049 28.2422 28.5229 31.7863 23.4844 35.0304C23.1914 35.2179 22.7812 35.4054 22.5 35.4054C22.207 35.4054 21.7969 35.2179 21.5039 35.0304C13.125 29.628 7.65234 23.3936 7.65234 17.0304C7.65234 11.8038 11.2617 8.07723 16.0781 8.07723C18.832 8.07723 21.1875 9.47176 22.5 11.5811C23.8242 9.46004 26.1562 8.07723 28.9219 8.07723C29.873 8.07723 30.7766 8.22256 31.6117 8.50119Z" fill="currentColor"/><path d="M30.3984 13.5264C30.3984 13.878 30.668 14.1241 31.0312 14.1241L36.2461 14.1241L33.457 21.6475C33.1055 22.5499 34.0547 23.0304 34.6523 22.3155L43.0898 11.7218C43.2422 11.5343 43.3242 11.335 43.3242 11.1593C43.3242 10.8077 43.043 10.5733 42.6914 10.5733L37.4766 10.5733L40.2656 3.04988C40.6055 2.14754 39.6562 1.65535 39.0703 2.38191L30.6328 12.9639C30.4805 13.1632 30.3984 13.3507 30.3984 13.5264Z" fill="currentColor"/></svg>