<svg xmlns="http://www.w3.org/2000/svg" viewBox="0 0 31.9483 31.9131">
  <path d="M15.4468 9.69289L13.7007 11.4507C15.8804 11.521 17.2984 12.1304 18.3999 13.2437C21.0952 15.9273 21.0835 19.7827 18.3882 22.4663L13.4546 27.3999C10.7476 30.0952 6.91554 30.1187 4.23195 27.4351C1.52492 24.728 1.54836 20.8843 4.24367 18.2007L7.57179 14.8609C7.23195 14.064 7.1382 13.0913 7.30226 12.2124L2.66164 16.853C-0.865706 20.3804-0.912581 25.396 2.67336 28.9819C6.25929 32.5679 11.2866 32.521 14.8023 28.9937L19.9702 23.8257C23.4976 20.2866 23.5444 15.271 19.9585 11.6851C18.8921 10.6304 17.5679 9.92726 15.4468 9.69289ZM16.1499 21.9624L17.8843 20.2046C15.7163 20.1343 14.2984 19.5249 13.1968 18.4116C10.5015 15.728 10.5132 11.8726 13.2085 9.18898L18.1421 4.25539C20.8491 1.56007 24.6812 1.53664 27.3648 4.22023C30.0718 6.92726 30.0484 10.771 27.353 13.4546L24.0249 16.7944C24.3648 17.5913 24.4585 18.564 24.2944 19.4429L28.9351 14.8023C32.4624 11.2749 32.4976 6.25929 28.9234 2.67336C25.3257-0.912581 20.3101-0.865706 16.7944 2.66164L11.6265 7.82961C8.09914 11.3569 8.05226 16.3843 11.6382 19.9702C12.7046 21.0249 14.0171 21.728 16.1499 21.9624Z" fill="currentColor"/>
</svg>
