<svg xmlns="http://www.w3.org/2000/svg" viewBox="0 0 35.8594 27.5508"><path d="M4.55859 27.5508L30.9375 27.5508C33.9727 27.5508 35.5078 26.0156 35.5078 23.0391L35.5078 4.52344C35.5078 1.53516 33.9727 0 30.9375 0L4.55859 0C1.53516 0 0 1.52344 0 4.52344L0 23.0391C0 26.0391 1.53516 27.5508 4.55859 27.5508ZM4.60547 25.4766C2.96484 25.4766 2.07422 24.6094 2.07422 22.9219L2.07422 4.62891C2.07422 2.95312 2.96484 2.07422 4.60547 2.07422L30.9023 2.07422C32.5078 2.07422 33.4219 2.95312 33.4219 4.62891L33.4219 22.9219C33.4219 24.6094 32.5078 25.4766 30.9023 25.4766Z" fill="currentColor"/><path d="M7.20703 8.19141L9.03516 8.19141C9.63281 8.19141 10.1367 7.69922 10.1367 7.10156C10.1367 6.49219 9.62109 6.01172 9.03516 6.01172L7.20703 6.01172C6.59766 6.01172 6.11719 6.49219 6.11719 7.10156C6.11719 7.6875 6.60938 8.19141 7.20703 8.19141Z" fill="currentColor"/><path d="M13.1367 7.92188L28.5469 7.92188C29.0156 7.92188 29.3672 7.57031 29.3672 7.10156C29.3672 6.63281 29.0156 6.28125 28.5469 6.28125L13.1367 6.28125C12.6797 6.28125 12.3164 6.63281 12.3164 7.10156C12.3164 7.57031 12.668 7.92188 13.1367 7.92188Z" fill="currentColor"/><path d="M7.20703 13.2188L9.03516 13.2188C9.62109 13.2188 10.1367 12.7266 10.1367 12.1406C10.1367 11.5312 9.63281 11.0508 9.03516 11.0508L7.20703 11.0508C6.59766 11.0508 6.11719 11.5312 6.11719 12.1406C6.11719 12.7266 6.59766 13.2188 7.20703 13.2188Z" fill="currentColor"/><path d="M13.1367 12.9609L28.5469 12.9609C29.0156 12.9609 29.3672 12.6094 29.3672 12.1406C29.3672 11.6719 29.0156 11.2969 28.5469 11.2969L13.1367 11.2969C12.6797 11.2969 12.3164 11.6602 12.3164 12.1406C12.3164 12.5977 12.668 12.9609 13.1367 12.9609Z" fill="currentColor"/></svg>
