<svg version="1.1" xmlns="http://www.w3.org/2000/svg" xmlns:xlink="http://www.w3.org/1999/xlink" viewBox="0 0 34.3711 32.918">
  <path d="M28.6992 17.2969C28.9453 17.2969 29.1094 17.1328 29.1445 16.875C29.6836 12.832 29.8242 12.7852 33.9258 12.082C34.207 12.0352 34.3711 11.8945 34.3711 11.6367C34.3711 11.3906 34.207 11.2383 33.9727 11.1914C29.8594 10.4062 29.6836 10.4531 29.1445 6.39844C29.1094 6.14062 28.9453 5.97656 28.6992 5.97656C28.4648 5.97656 28.2891 6.14062 28.2656 6.38672C27.7031 10.4766 27.6211 10.5586 23.4258 11.1914C23.2031 11.2266 23.0273 11.3906 23.0273 11.6367C23.0273 11.8828 23.2031 12.0352 23.4258 12.082C27.6211 12.8906 27.6914 12.8555 28.2656 16.8984C28.2891 17.1328 28.4648 17.2969 28.6992 17.2969ZM21.4688 7.27734C21.6211 7.27734 21.7148 7.18359 21.7383 7.03125C22.1836 4.5 22.1953 4.40625 24.8555 3.91406C25.0078 3.89062 25.1133 3.79688 25.1133 3.64453C25.1133 3.48047 25.0078 3.39844 24.8555 3.36328C22.207 2.82422 22.3008 2.74219 21.7383 0.246094C21.7148 0.09375 21.6211 0 21.4688 0C21.3164 0 21.2344 0.09375 21.1992 0.246094C20.6484 2.74219 20.7656 2.82422 18.0938 3.36328C17.9414 3.39844 17.8359 3.48047 17.8359 3.64453C17.8359 3.79688 17.9414 3.89062 18.0938 3.91406C20.7656 4.45312 20.7422 4.5 21.1992 7.03125C21.2344 7.18359 21.3164 7.27734 21.4688 7.27734Z" fill="currentColor"/>
  <path d="M17.4258 30.9844C22.7812 30.9844 27.1641 27.7617 29.0859 23.5547C29.4492 22.8047 28.9922 22.2891 28.2539 22.5117C27.375 22.8281 25.8164 23.1797 24.2695 23.1797C16.8047 23.1797 12.5273 18.9258 12.5273 11.4375C12.5273 9.9375 12.8555 8.41406 13.3359 7.21875C13.6641 6.39844 13.1133 5.91797 12.3398 6.26953C8.17969 8.02734 4.53516 12.4688 4.53516 18.1055C4.53516 25.2188 10.3125 30.9844 17.4258 30.9844Z" fill="currentColor"/>
</svg>
