<svg version="1.1" xmlns="http://www.w3.org/2000/svg" xmlns:xlink="http://www.w3.org/1999/xlink" viewBox="0 0 34.125 32.918">
  <path d="M28.4531 17.2969C28.6992 17.2969 28.8633 17.1328 28.8984 16.875C29.4375 12.832 29.5781 12.7852 33.6797 12.082C33.9609 12.0352 34.125 11.8945 34.125 11.6367C34.125 11.3906 33.9609 11.2383 33.7266 11.1914C29.6133 10.4062 29.4375 10.4531 28.8984 6.39844C28.8633 6.14062 28.6992 5.97656 28.4531 5.97656C28.2188 5.97656 28.043 6.14062 28.0195 6.38672C27.457 10.4766 27.375 10.5586 23.1797 11.1914C22.957 11.2266 22.7812 11.3906 22.7812 11.6367C22.7812 11.8828 22.957 12.0352 23.1797 12.082C27.375 12.8906 27.4453 12.8555 28.0195 16.8984C28.043 17.1328 28.2188 17.2969 28.4531 17.2969ZM21.2227 7.27734C21.375 7.27734 21.4688 7.18359 21.4922 7.03125C21.9375 4.5 21.9492 4.40625 24.6094 3.91406C24.7617 3.89062 24.8672 3.79688 24.8672 3.64453C24.8672 3.48047 24.7617 3.39844 24.6094 3.36328C21.9609 2.82422 22.0547 2.74219 21.4922 0.246094C21.4688 0.09375 21.375 0 21.2227 0C21.0703 0 20.9883 0.09375 20.9531 0.246094C20.4023 2.74219 20.5195 2.82422 17.8477 3.36328C17.6953 3.39844 17.5898 3.48047 17.5898 3.64453C17.5898 3.79688 17.6953 3.89062 17.8477 3.91406C20.5195 4.45312 20.4961 4.5 20.9531 7.03125C20.9883 7.18359 21.0703 7.27734 21.2227 7.27734Z" fill="currentColor"/>
  <path d="M17.1797 31.0547C22.5352 31.0547 26.918 27.832 28.8398 23.625C29.2031 22.875 28.7461 22.3594 28.0078 22.5938C27.1289 22.9102 25.5703 23.25 24.0234 23.25C16.5586 23.25 12.2812 18.9961 12.2812 11.5078C12.2812 10.0078 12.6094 8.48438 13.0898 7.28906C13.418 6.46875 12.8672 5.98828 12.0938 6.33984C7.93359 8.09766 4.28906 12.5391 4.28906 18.1758C4.28906 25.2891 10.0664 31.0547 17.1797 31.0547ZM17.1797 29.1797C11.1094 29.1797 6.15234 24.2461 6.15234 18.1758C6.15234 14.25 8.25 11.1562 10.6992 9.36328C10.5234 10.0547 10.4297 10.7344 10.4297 11.5078C10.4297 20.0156 15.5156 25.125 24.0234 25.125C24.6914 25.125 25.3125 25.0312 25.8047 24.9023C23.8828 27.4688 20.7773 29.1797 17.1797 29.1797Z" fill="currentColor"/>
</svg>
