<svg version="1.1" xmlns="http://www.w3.org/2000/svg" xmlns:xlink="http://www.w3.org/1999/xlink" viewBox="0 0 26.543 27.7617">
<path d="M3.43359 27.75L22.7578 27.75C25.0898 27.75 26.1914 27.0234 26.1914 25.4531C26.1914 21.5039 21.2109 15.832 13.0898 15.832C4.98047 15.832 0 21.5039 0 25.4531C0 27.0234 1.10156 27.75 3.43359 27.75ZM2.85938 25.793C2.28516 25.793 2.07422 25.6406 2.07422 25.2188C2.07422 22.4883 6.04688 17.8008 13.0898 17.8008C20.1445 17.8008 24.1172 22.4883 24.1172 25.2188C24.1172 25.6406 23.9062 25.793 23.332 25.793ZM13.1133 13.8398C16.6641 13.8398 19.5234 10.7109 19.5234 6.83203C19.5234 3.02344 16.6641 0 13.1133 0C9.57422 0 6.69141 3.07031 6.69141 6.85547C6.69141 10.7227 9.5625 13.8398 13.1133 13.8398ZM13.1133 11.8828C10.7344 11.8828 8.76562 9.67969 8.76562 6.85547C8.76562 4.11328 10.7227 1.95703 13.1133 1.95703C15.5039 1.95703 17.4492 4.07812 17.4492 6.83203C17.4492 9.65625 15.4922 11.8828 13.1133 11.8828Z" fill="currentColor"/>
</svg>
