<svg xmlns="http://www.w3.org/2000/svg" viewBox="0 0 25.0195 24.6914"><path d="M13.4766 23.5195L13.4766 1.14844C13.4766 0.527344 12.9609 0 12.3281 0C11.707 0 11.1914 0.527344 11.1914 1.14844L11.1914 23.5195C11.1914 24.1406 11.707 24.668 12.3281 24.668C12.9609 24.668 13.4766 24.1406 13.4766 23.5195ZM1.14844 13.4766L23.5195 13.4766C24.1406 13.4766 24.668 12.9609 24.668 12.3398C24.668 11.707 24.1406 11.1914 23.5195 11.1914L1.14844 11.1914C0.527344 11.1914 0 11.707 0 12.3398C0 12.9609 0.527344 13.4766 1.14844 13.4766Z" fill="currentColor"/></svg>