<svg xmlns="http://www.w3.org/2000/svg" viewBox="0 0 26.8594 41.0039">
  <path d="M26.5078 18.1172L26.5078 29.6836C26.5078 33.6914 24.2812 35.9297 20.2617 35.9297L6.24609 35.9297C2.22656 35.9297 0 33.6914 0 29.6836L0 18.1172C0 14.1094 2.22656 11.8828 6.24609 11.8828L9.58594 11.8828L9.58594 13.957L6.23438 13.957C3.57422 13.957 2.07422 15.457 2.07422 18.1172L2.07422 29.6953C2.07422 32.3555 3.57422 33.8555 6.23438 33.8555L20.2617 33.8555C22.9336 33.8555 24.4336 32.3555 24.4336 29.6953L24.4336 18.1172C24.4336 15.457 22.9336 13.957 20.2617 13.957L16.9219 13.957L16.9219 11.8828L20.2617 11.8828C24.2812 11.8828 26.5078 14.1094 26.5078 18.1172Z" fill="currentColor"/>
  <path d="M8.10938 9.22266C8.35547 9.22266 8.63672 9.11719 8.82422 8.90625L11.3789 6.23438L13.2539 4.26562L15.1289 6.23438L17.6719 8.90625C17.8594 9.11719 18.1289 9.22266 18.375 9.22266C18.9141 9.22266 19.3242 8.83594 19.3242 8.30859C19.3242 8.03906 19.207 7.82812 19.0195 7.62891L14.0039 2.75391C13.7461 2.49609 13.5117 2.41406 13.2539 2.41406C12.9961 2.41406 12.7617 2.49609 12.5039 2.75391L7.48828 7.62891C7.28906 7.82812 7.18359 8.03906 7.18359 8.30859C7.18359 8.83594 7.57031 9.22266 8.10938 9.22266ZM13.2539 24.2227C13.8047 24.2227 14.2852 23.7656 14.2852 23.2266L14.2852 7.5L14.1328 3.75C14.1094 3.26953 13.7344 2.87109 13.2539 2.87109C12.7734 2.87109 12.3984 3.26953 12.375 3.75L12.2227 7.5L12.2227 23.2266C12.2227 23.7656 12.7031 24.2227 13.2539 24.2227Z" fill="currentColor"/>
</svg>
