<svg version="1.1" xmlns="http://www.w3.org/2000/svg" xmlns:xlink="http://www.w3.org/1999/xlink" viewBox="0 0 32.8945 32.6367">
  <path d="M16.2656 5.63672C16.8867 5.63672 17.3789 5.13281 17.3789 4.52344L17.3789 1.11328C17.3789 0.503906 16.8867 0 16.2656 0C15.6562 0 15.1641 0.503906 15.1641 1.11328L15.1641 4.52344C15.1641 5.13281 15.6562 5.63672 16.2656 5.63672ZM23.8008 8.77734C24.2344 9.19922 24.9375 9.22266 25.3828 8.77734L27.7969 6.36328C28.2305 5.92969 28.2188 5.21484 27.7969 4.78125C27.3633 4.35938 26.6602 4.34766 26.2266 4.78125L23.8008 7.20703C23.3672 7.64062 23.3789 8.34375 23.8008 8.77734ZM26.918 16.3125C26.918 16.9219 27.4219 17.4141 28.0312 17.4141L31.4297 17.4141C32.0391 17.4141 32.543 16.9219 32.543 16.3125C32.543 15.7031 32.0391 15.1992 31.4297 15.1992L28.0312 15.1992C27.4219 15.1992 26.918 15.7031 26.918 16.3125ZM23.8008 23.8477C23.3789 24.2812 23.3672 24.9961 23.8008 25.418L26.2266 27.8438C26.6602 28.2773 27.3633 28.2539 27.7969 27.832C28.2188 27.3984 28.2305 26.6953 27.7969 26.2734L25.3711 23.8477C24.9375 23.4258 24.2344 23.4258 23.8008 23.8477ZM16.2656 26.9883C15.6562 26.9883 15.1641 27.4805 15.1641 28.0898L15.1641 31.5C15.1641 32.1211 15.6562 32.6133 16.2656 32.6133C16.8867 32.6133 17.3789 32.1211 17.3789 31.5L17.3789 28.0898C17.3789 27.4805 16.8867 26.9883 16.2656 26.9883ZM8.74219 23.8477C8.30859 23.4258 7.59375 23.4258 7.16016 23.8477L4.74609 26.2617C4.3125 26.6836 4.32422 27.3867 4.73438 27.8203C5.16797 28.2422 5.88281 28.2656 6.30469 27.832L8.73047 25.418C9.15234 24.9961 9.15234 24.2812 8.74219 23.8477ZM5.61328 16.3125C5.61328 15.7031 5.12109 15.1992 4.51172 15.1992L1.11328 15.1992C0.503906 15.1992 0 15.7031 0 16.3125C0 16.9219 0.503906 17.4141 1.11328 17.4141L4.51172 17.4141C5.12109 17.4141 5.61328 16.9219 5.61328 16.3125ZM8.73047 8.77734C9.15234 8.35547 9.15234 7.62891 8.74219 7.20703L6.31641 4.78125C5.90625 4.37109 5.19141 4.35938 4.75781 4.78125C4.33594 5.21484 4.32422 5.92969 4.74609 6.35156L7.16016 8.77734C7.59375 9.21094 8.29688 9.19922 8.73047 8.77734Z" fill="currentColor"/>
  <path d="M16.2656 23.8477C20.4258 23.8477 23.8125 20.4727 23.8125 16.3125C23.8125 12.1523 20.4258 8.76562 16.2656 8.76562C12.1055 8.76562 8.73047 12.1523 8.73047 16.3125C8.73047 20.4727 12.1055 23.8477 16.2656 23.8477ZM16.2656 21.8789C13.1836 21.8789 10.6992 19.3945 10.6992 16.3125C10.6992 13.2188 13.1836 10.7344 16.2656 10.7344C19.3594 10.7344 21.8438 13.2188 21.8438 16.3125C21.8438 19.3945 19.3594 21.8789 16.2656 21.8789Z" fill="currentColor"/>
</svg>
